# xmcd CD database file
#
# Track frame offsets:
#	150
#	21557
#	43069
#	63556
#	83677
#	104457
#	124005
#	144873
#	165024
#	185289
#
# Disc length: 2740 seconds
#
# Revision: 0
# Processed by: cddbd v1.5.2PL0 Copyright (c) Steve Scherf et al.
# Submitted via: CDex 1.70beta2
#
DISCID=7b0ab20a
DTITLE=Various Artist - LOUNGE STYLE Brussels Airport by W.Joosten
DYEAR=2006
DGENRE=Jazz
TTITLE0=City 6-A
TTITLE1=Belgium Night
TTITLE2=You'd Be So Nice To Come Home To(Cole Porter)
TTITLE3=Last Flight
TTITLE4=Traffic Jam
TTITLE5=Summer Time(George Garshwin)
TTITLE6=Chocolate Building
TTITLE7=Bleak Space
TTITLE8=Unfamiliar Face
TTITLE9=At A Classic Bar
EXTD=YEAR: 2006
EXTT0=
EXTT1=
EXTT2=
EXTT3=
EXTT4=
EXTT5=
EXTT6=
EXTT7=
EXTT8=
EXTT9=
PLAYORDER=
